<svg width="279" height="118" viewBox="0 0 279 118" fill="none" xmlns="http://www.w3.org/2000/svg">
<path d="M18.0505 13.926C18.0474 13.926 18.0438 13.926 18.0406 13.926C16.9246 13.926 15.8749 14.3611 15.0823 15.1517C14.2809 15.9511 13.8395 17.0155 13.8395 18.1486V81.4656C13.8395 83.7874 15.7358 85.681 18.0672 85.687C27.8958 85.7104 44.3626 87.7589 55.7225 99.6468V33.3838C55.7225 32.5967 55.5214 31.8573 55.142 31.2455C45.8184 16.2304 27.9014 13.9491 18.0505 13.926Z" fill="url(#paint0_linear_242_7)"/>
<path d="M104.161 81.4647V18.1474C104.161 17.0143 103.72 15.9499 102.918 15.1505C102.126 14.3599 101.075 13.9248 99.9603 13.9248C99.9567 13.9248 99.9531 13.9248 99.95 13.9248C90.0995 13.9482 72.1825 16.2296 62.8585 31.2446C62.4791 31.8565 62.2784 32.5959 62.2784 33.3829V99.6455C73.6383 87.7577 90.1051 85.7092 99.9337 85.6857C102.265 85.6798 104.161 83.7862 104.161 81.4647Z" fill="url(#paint1_linear_242_7)"/>
<path d="M113.778 28.5271H110.717V81.4648C110.717 87.393 105.886 92.2271 99.9491 92.2418C91.6124 92.2616 77.8663 93.8918 68.1311 103.106C84.9682 98.9833 102.718 101.663 112.833 103.968C114.096 104.256 115.401 103.959 116.413 103.152C117.422 102.348 118 101.145 118 99.8542V32.7489C118 30.4211 116.106 28.5271 113.778 28.5271Z" fill="url(#paint2_linear_242_7)"/>
<path d="M7.28345 81.4648V28.5271H4.22179C1.89436 28.5271 0 30.4211 0 32.7489V99.853C0 101.144 0.57848 102.346 1.58685 103.151C2.598 103.957 3.90196 104.256 5.16699 103.967C15.2824 101.662 33.0322 98.9821 49.8685 103.105C40.1336 93.891 26.3876 92.2612 18.0509 92.2414C12.1139 92.2271 7.28345 87.393 7.28345 81.4648Z" fill="url(#paint3_linear_242_7)"/>
<path d="M143.652 52.0896V27.9496H151.846C154.408 27.9496 156.538 28.4936 158.238 29.5816C159.961 30.6469 161.253 32.0976 162.114 33.9336C162.976 35.7469 163.406 37.7643 163.406 39.9856C163.406 42.4336 162.93 44.5643 161.978 46.3776C161.026 48.1909 159.689 49.5963 157.966 50.5936C156.244 51.5909 154.204 52.0896 151.846 52.0896H143.652ZM161.026 39.9856C161.026 38.0589 160.664 36.3476 159.938 34.8516C159.236 33.3556 158.193 32.1883 156.81 31.3496C155.45 30.4883 153.796 30.0576 151.846 30.0576H146.032V49.9816H151.846C153.841 49.9816 155.518 49.5396 156.878 48.6556C158.238 47.7716 159.27 46.5816 159.972 45.0856C160.675 43.5896 161.026 41.8896 161.026 39.9856ZM177.069 52.4296C175.369 52.4296 173.85 52.0103 172.513 51.1716C171.198 50.3329 170.167 49.2223 169.419 47.8396C168.671 46.4343 168.297 44.9156 168.297 43.2836C168.297 41.6289 168.671 40.1103 169.419 38.7276C170.19 37.3223 171.232 36.2003 172.547 35.3616C173.884 34.5003 175.392 34.0696 177.069 34.0696C178.769 34.0696 180.276 34.5003 181.591 35.3616C182.928 36.2003 183.971 37.3223 184.719 38.7276C185.49 40.1103 185.875 41.6289 185.875 43.2836C185.875 44.9156 185.501 46.4343 184.753 47.8396C184.005 49.2223 182.962 50.3329 181.625 51.1716C180.31 52.0103 178.792 52.4296 177.069 52.4296ZM170.643 43.3176C170.643 44.6323 170.926 45.8336 171.493 46.9216C172.082 47.9869 172.864 48.8369 173.839 49.4716C174.814 50.0836 175.89 50.3896 177.069 50.3896C178.248 50.3896 179.324 50.0723 180.299 49.4376C181.274 48.8029 182.056 47.9416 182.645 46.8536C183.234 45.7656 183.529 44.5643 183.529 43.2496C183.529 41.9349 183.234 40.7336 182.645 39.6456C182.056 38.5576 181.274 37.6963 180.299 37.0616C179.324 36.4269 178.248 36.1096 177.069 36.1096C175.913 36.1096 174.848 36.4383 173.873 37.0956C172.898 37.7303 172.116 38.5916 171.527 39.6796C170.938 40.7676 170.643 41.9803 170.643 43.3176ZM206.674 52.0896H204.362V42.1956C204.362 40.1103 204.045 38.5916 203.41 37.6396C202.798 36.6649 201.846 36.1776 200.554 36.1776C199.647 36.1776 198.752 36.4043 197.868 36.8576C196.984 37.2883 196.202 37.8889 195.522 38.6596C194.865 39.4076 194.389 40.2689 194.094 41.2436V52.0896H191.782V34.3756H193.89V38.3876C194.593 37.0956 195.624 36.0529 196.984 35.2596C198.344 34.4663 199.817 34.0696 201.404 34.0696C202.719 34.0696 203.761 34.3869 204.532 35.0216C205.303 35.6336 205.847 36.5176 206.164 37.6736C206.504 38.8069 206.674 40.1556 206.674 41.7196V52.0896ZM212.216 46.9896C212.216 45.9016 212.533 44.9609 213.168 44.1676C213.803 43.3516 214.675 42.7169 215.786 42.2636C216.919 41.8103 218.223 41.5836 219.696 41.5836C220.557 41.5836 221.453 41.6629 222.382 41.8216C223.311 41.9576 224.139 42.1503 224.864 42.3996V40.9036C224.864 39.4076 224.422 38.2176 223.538 37.3336C222.654 36.4496 221.43 36.0076 219.866 36.0076C218.937 36.0076 218.007 36.1889 217.078 36.5516C216.149 36.8916 215.185 37.4016 214.188 38.0816L213.304 36.4496C214.46 35.6563 215.593 35.0669 216.704 34.6816C217.815 34.2736 218.948 34.0696 220.104 34.0696C222.28 34.0696 224.003 34.6929 225.272 35.9396C226.541 37.1863 227.176 38.9089 227.176 41.1076V49.3016C227.176 49.9136 227.459 50.2309 228.026 50.2536V52.0896C227.527 52.1576 227.176 52.1803 226.972 52.1576C226.405 52.1349 225.975 51.9536 225.68 51.6136C225.385 51.2736 225.227 50.9109 225.204 50.5256L225.17 49.2336C224.377 50.2536 223.345 51.0469 222.076 51.6136C220.807 52.1576 219.515 52.4296 218.2 52.4296C217.044 52.4296 216.013 52.1916 215.106 51.7156C214.199 51.2169 213.485 50.5596 212.964 49.7436C212.465 48.9049 212.216 47.9869 212.216 46.9896ZM224.082 48.3496C224.603 47.7376 224.864 47.1709 224.864 46.6496V44.0656C223.3 43.4536 221.668 43.1476 219.968 43.1476C218.313 43.1476 216.976 43.4763 215.956 44.1336C214.936 44.7909 214.426 45.6863 214.426 46.8196C214.426 47.7943 214.8 48.6783 215.548 49.4716C216.319 50.2649 217.384 50.6616 218.744 50.6616C219.855 50.6616 220.886 50.4463 221.838 50.0156C222.813 49.5849 223.561 49.0296 224.082 48.3496ZM242.579 51.2396C242.307 51.3529 241.808 51.5569 241.083 51.8516C240.357 52.1463 239.519 52.2936 238.567 52.2936C237.569 52.2936 236.697 52.0103 235.949 51.4436C235.201 50.8769 234.827 50.0269 234.827 48.8936V36.2116H232.379V34.3756H234.827V28.3916H237.139V34.3756H241.219V36.2116H237.139V48.2476C237.184 48.9049 237.411 49.3923 237.819 49.7096C238.249 50.0043 238.737 50.1516 239.281 50.1516C239.915 50.1516 240.482 50.0496 240.981 49.8456C241.502 49.6189 241.831 49.4603 241.967 49.3696L242.579 51.2396ZM254.858 52.4296C253.158 52.4296 251.64 52.0103 250.302 51.1716C248.965 50.3329 247.911 49.2109 247.14 47.8056C246.37 46.4003 245.984 44.8589 245.984 43.1816C245.984 41.5269 246.358 40.0083 247.106 38.6256C247.877 37.2429 248.931 36.1436 250.268 35.3276C251.606 34.4889 253.124 34.0696 254.824 34.0696C256.57 34.0696 258.1 34.4889 259.414 35.3276C260.729 36.1663 261.749 37.2769 262.474 38.6596C263.222 40.0196 263.596 41.5156 263.596 43.1476C263.596 43.5103 263.585 43.8163 263.562 44.0656H248.398C248.512 45.3349 248.874 46.4683 249.486 47.4656C250.098 48.4403 250.88 49.2223 251.832 49.8116C252.784 50.3783 253.827 50.6616 254.96 50.6616C256.116 50.6616 257.204 50.3669 258.224 49.7776C259.244 49.1883 259.97 48.4176 260.4 47.4656L262.406 48.0096C262.044 48.8709 261.477 49.6416 260.706 50.3216C259.958 50.9789 259.086 51.5003 258.088 51.8856C257.091 52.2483 256.014 52.4296 254.858 52.4296ZM248.33 42.3996H261.42C261.33 41.1303 260.978 40.0083 260.366 39.0336C259.754 38.0363 258.972 37.2656 258.02 36.7216C257.068 36.1549 256.014 35.8716 254.858 35.8716C253.702 35.8716 252.648 36.1549 251.696 36.7216C250.744 37.2656 249.962 38.0363 249.35 39.0336C248.761 40.0083 248.421 41.1303 248.33 42.3996ZM161.808 85.8676C161.808 87.0689 161.502 88.1456 160.89 89.0976C160.278 90.0269 159.451 90.7636 158.408 91.3076C157.388 91.8289 156.266 92.0896 155.042 92.0896H143.652V67.9496H155.28C156.414 67.9496 157.388 68.2556 158.204 68.8676C159.02 69.4569 159.655 70.2276 160.108 71.1796C160.562 72.1089 160.788 73.0836 160.788 74.1036C160.788 75.3049 160.482 76.4156 159.87 77.4356C159.258 78.4556 158.408 79.2149 157.32 79.7136C158.68 80.1216 159.768 80.8809 160.584 81.9916C161.4 83.1023 161.808 84.3943 161.808 85.8676ZM146.032 70.0236V78.9316H154.328C155.122 78.9316 155.824 78.7276 156.436 78.3196C157.071 77.8889 157.558 77.3449 157.898 76.6876C158.261 76.0076 158.442 75.2709 158.442 74.4776C158.442 73.6616 158.272 72.9136 157.932 72.2336C157.592 71.5536 157.128 71.0209 156.538 70.6356C155.949 70.2276 155.28 70.0236 154.532 70.0236H146.032ZM159.428 85.4596C159.428 84.6663 159.247 83.9183 158.884 83.2156C158.522 82.5129 158.023 81.9463 157.388 81.5156C156.776 81.0849 156.074 80.8696 155.28 80.8696H146.032V90.0156H155.042C155.858 90.0156 156.595 89.8003 157.252 89.3696C157.91 88.9389 158.431 88.3836 158.816 87.7036C159.224 87.0009 159.428 86.2529 159.428 85.4596ZM175.409 92.4296C173.709 92.4296 172.19 92.0103 170.853 91.1716C169.538 90.3329 168.507 89.2223 167.759 87.8396C167.011 86.4343 166.637 84.9156 166.637 83.2836C166.637 81.6289 167.011 80.1103 167.759 78.7276C168.53 77.3223 169.572 76.2003 170.887 75.3616C172.224 74.5003 173.732 74.0696 175.409 74.0696C177.109 74.0696 178.616 74.5003 179.931 75.3616C181.268 76.2003 182.311 77.3223 183.059 78.7276C183.83 80.1103 184.215 81.6289 184.215 83.2836C184.215 84.9156 183.841 86.4343 183.093 87.8396C182.345 89.2223 181.302 90.3329 179.965 91.1716C178.65 92.0103 177.132 92.4296 175.409 92.4296ZM168.983 83.3176C168.983 84.6323 169.266 85.8336 169.833 86.9216C170.422 87.9869 171.204 88.8369 172.179 89.4716C173.154 90.0836 174.23 90.3896 175.409 90.3896C176.588 90.3896 177.664 90.0723 178.639 89.4376C179.614 88.8029 180.396 87.9416 180.985 86.8536C181.574 85.7656 181.869 84.5643 181.869 83.2496C181.869 81.9349 181.574 80.7336 180.985 79.6456C180.396 78.5576 179.614 77.6963 178.639 77.0616C177.664 76.4269 176.588 76.1096 175.409 76.1096C174.253 76.1096 173.188 76.4383 172.213 77.0956C171.238 77.7303 170.456 78.5916 169.867 79.6796C169.278 80.7676 168.983 81.9803 168.983 83.3176ZM197.67 92.4296C195.97 92.4296 194.451 92.0103 193.114 91.1716C191.799 90.3329 190.768 89.2223 190.02 87.8396C189.272 86.4343 188.898 84.9156 188.898 83.2836C188.898 81.6289 189.272 80.1103 190.02 78.7276C190.79 77.3223 191.833 76.2003 193.148 75.3616C194.485 74.5003 195.992 74.0696 197.67 74.0696C199.37 74.0696 200.877 74.5003 202.192 75.3616C203.529 76.2003 204.572 77.3223 205.32 78.7276C206.09 80.1103 206.476 81.6289 206.476 83.2836C206.476 84.9156 206.102 86.4343 205.354 87.8396C204.606 89.2223 203.563 90.3329 202.226 91.1716C200.911 92.0103 199.392 92.4296 197.67 92.4296ZM191.244 83.3176C191.244 84.6323 191.527 85.8336 192.094 86.9216C192.683 87.9869 193.465 88.8369 194.44 89.4716C195.414 90.0836 196.491 90.3896 197.67 90.3896C198.848 90.3896 199.925 90.0723 200.9 89.4376C201.874 88.8029 202.656 87.9416 203.246 86.8536C203.835 85.7656 204.13 84.5643 204.13 83.2496C204.13 81.9349 203.835 80.7336 203.246 79.6456C202.656 78.5576 201.874 77.6963 200.9 77.0616C199.925 76.4269 198.848 76.1096 197.67 76.1096C196.514 76.1096 195.448 76.4383 194.474 77.0956C193.499 77.7303 192.717 78.5916 192.128 79.6796C191.538 80.7676 191.244 81.9803 191.244 83.3176ZM225.03 92.0896L218.468 83.0116L214.694 86.5476V92.0896H212.382V67.2696H214.694V84.0656L224.724 74.4096H227.274L220.032 81.6516L227.546 92.0896H225.03ZM238.266 92.4296C236.815 92.4296 235.466 92.1916 234.22 91.7156C232.996 91.2169 231.919 90.4916 230.99 89.5396L231.942 87.9076C232.939 88.8369 233.936 89.5169 234.934 89.9476C235.954 90.3556 237.03 90.5596 238.164 90.5596C239.524 90.5596 240.634 90.2876 241.496 89.7436C242.38 89.1769 242.822 88.3723 242.822 87.3296C242.822 86.6269 242.606 86.0943 242.176 85.7316C241.768 85.3463 241.167 85.0403 240.374 84.8136C239.603 84.5869 238.674 84.3263 237.586 84.0316C236.362 83.6916 235.33 83.3403 234.492 82.9776C233.676 82.5923 233.052 82.1163 232.622 81.5496C232.214 80.9603 232.01 80.2009 232.01 79.2716C232.01 78.1383 232.293 77.1863 232.86 76.4156C233.449 75.6449 234.242 75.0669 235.24 74.6816C236.26 74.2736 237.393 74.0696 238.64 74.0696C240 74.0696 241.201 74.2849 242.244 74.7156C243.286 75.1463 244.136 75.7469 244.794 76.5176L243.672 78.0816C243.06 77.3563 242.3 76.8236 241.394 76.4836C240.51 76.1209 239.546 75.9396 238.504 75.9396C237.778 75.9396 237.087 76.0416 236.43 76.2456C235.772 76.4269 235.228 76.7443 234.798 77.1976C234.39 77.6283 234.186 78.2289 234.186 78.9996C234.186 79.9516 234.537 80.6089 235.24 80.9716C235.942 81.3343 237.008 81.7196 238.436 82.1276C239.773 82.4903 240.94 82.8529 241.938 83.2156C242.935 83.5783 243.706 84.0656 244.25 84.6776C244.794 85.2669 245.066 86.0943 245.066 87.1596C245.066 88.8143 244.442 90.1063 243.196 91.0356C241.949 91.9649 240.306 92.4296 238.266 92.4296Z" fill="url(#paint4_linear_242_7)"/>
<path d="M143.652 52.0896H142.952V52.7896H143.652V52.0896ZM143.652 27.9496V27.2496H142.952V27.9496H143.652ZM158.238 29.5816L157.861 30.1713L157.87 30.1769L158.238 29.5816ZM162.114 33.9336L161.481 34.2309L161.482 34.2339L162.114 33.9336ZM161.978 46.3776L161.359 46.0522L161.978 46.3776ZM157.966 50.5936L158.317 51.1994L157.966 50.5936ZM159.938 34.8516L159.305 35.1492L159.309 35.157L159.938 34.8516ZM156.81 31.3496L156.436 31.9411L156.447 31.9481L156.81 31.3496ZM146.032 30.0576V29.3576H145.332V30.0576H146.032ZM146.032 49.9816H145.332V50.6816H146.032V49.9816ZM156.878 48.6556L156.497 48.0687L156.878 48.6556ZM159.972 45.0856L159.339 44.788L159.972 45.0856ZM144.352 52.0896V27.9496H142.952V52.0896H144.352ZM143.652 28.6496H151.846V27.2496H143.652V28.6496ZM151.846 28.6496C154.31 28.6496 156.3 29.1724 157.861 30.1712L158.616 28.992C156.776 27.8148 154.506 27.2496 151.846 27.2496V28.6496ZM157.87 30.1769C159.477 31.1707 160.677 32.5178 161.481 34.2309L162.748 33.6363C161.829 31.6774 160.445 30.1231 158.607 28.9862L157.87 30.1769ZM161.482 34.2339C162.294 35.9438 162.706 37.857 162.706 39.9856H164.106C164.106 37.6715 163.657 35.55 162.747 33.6333L161.482 34.2339ZM162.706 39.9856C162.706 42.3423 162.249 44.3571 161.359 46.0522L162.598 46.703C163.612 44.7715 164.106 42.5249 164.106 39.9856H162.706ZM161.359 46.0522C160.466 47.7521 159.221 49.0587 157.616 49.9878L158.317 51.1994C160.158 50.1339 161.587 48.6297 162.598 46.703L161.359 46.0522ZM157.616 49.9878C156.018 50.9129 154.103 51.3896 151.846 51.3896V52.7896C154.304 52.7896 156.47 52.2689 158.317 51.1994L157.616 49.9878ZM151.846 51.3896H143.652V52.7896H151.846V51.3896ZM161.726 39.9856C161.726 37.9699 161.347 36.1514 160.568 34.5462L159.309 35.157C159.981 36.5438 160.326 38.1479 160.326 39.9856H161.726ZM160.572 34.554C159.812 32.9362 158.677 31.6629 157.173 30.7511L156.447 31.9481C157.71 32.7136 158.659 33.775 159.305 35.1492L160.572 34.554ZM157.185 30.7582C155.691 29.8122 153.9 29.3576 151.846 29.3576V30.7576C153.691 30.7576 155.21 31.1643 156.436 31.941L157.185 30.7582ZM151.846 29.3576H146.032V30.7576H151.846V29.3576ZM145.332 30.0576V49.9816H146.732V30.0576H145.332ZM146.032 50.6816H151.846V49.2816H146.032V50.6816ZM151.846 50.6816C153.945 50.6816 155.763 50.2157 157.26 49.2425L156.497 48.0687C155.274 48.8635 153.737 49.2816 151.846 49.2816V50.6816ZM157.26 49.2425C158.731 48.286 159.849 46.9949 160.606 45.3832L159.339 44.788C158.691 46.1683 157.745 47.2572 156.497 48.0687L157.26 49.2425ZM160.606 45.3832C161.359 43.7809 161.726 41.9769 161.726 39.9856H160.326C160.326 41.8023 159.992 43.3983 159.339 44.788L160.606 45.3832ZM172.513 51.1716L172.137 51.7618L172.141 51.7646L172.513 51.1716ZM169.419 47.8396L168.801 48.1685L168.803 48.1727L169.419 47.8396ZM169.419 38.7276L168.805 38.391L168.803 38.3945L169.419 38.7276ZM172.547 35.3616L172.924 35.9517L172.926 35.9501L172.547 35.3616ZM181.591 35.3616L181.207 35.9472L181.219 35.9546L181.591 35.3616ZM184.719 38.7276L184.101 39.0566L184.108 39.0684L184.719 38.7276ZM184.753 47.8396L185.369 48.1727L185.371 48.1685L184.753 47.8396ZM181.625 51.1716L181.253 50.5785L181.249 50.5815L181.625 51.1716ZM171.493 46.9216L170.872 47.245L170.876 47.2528L170.881 47.2604L171.493 46.9216ZM173.839 49.4716L173.457 50.0583L173.467 50.0644L173.839 49.4716ZM180.299 49.4376L180.681 50.0242L180.299 49.4376ZM182.645 46.8536L182.03 46.5202H182.03L182.645 46.8536ZM173.873 37.0956L174.255 37.6823L174.265 37.6759L173.873 37.0956ZM171.527 39.6796L170.912 39.3462L171.527 39.6796ZM177.069 51.7296C175.49 51.7296 174.102 51.3419 172.885 50.5786L172.141 51.7646C173.599 52.6786 175.248 53.1296 177.069 53.1296V51.7296ZM172.89 50.5815C171.676 49.8073 170.727 48.7855 170.035 47.5065L168.803 48.1727C169.608 49.6591 170.721 50.8586 172.137 51.7617L172.89 50.5815ZM170.037 47.5107C169.344 46.2092 168.997 44.8039 168.997 43.2836H167.597C167.597 45.0273 167.998 46.6593 168.801 48.1685L170.037 47.5107ZM168.997 43.2836C168.997 41.7389 169.345 40.3356 170.035 39.0607L168.803 38.3945C167.997 39.8849 167.597 41.5189 167.597 43.2836H168.997ZM170.033 39.0642C170.749 37.759 171.711 36.7254 172.924 35.9517L172.171 34.7715C170.754 35.6752 169.631 36.8856 168.805 38.391L170.033 39.0642ZM172.926 35.9501C174.144 35.1656 175.519 34.7696 177.069 34.7696V33.3696C175.265 33.3696 173.625 33.8349 172.168 34.7731L172.926 35.9501ZM177.069 34.7696C178.644 34.7696 180.016 35.1666 181.208 35.9471L181.975 34.7761C180.537 33.8339 178.894 33.3696 177.069 33.3696V34.7696ZM181.219 35.9546C182.452 36.7277 183.41 37.7582 184.101 39.0565L185.337 38.3987C184.532 36.8863 183.405 35.6728 181.963 34.7686L181.219 35.9546ZM184.108 39.0684C184.818 40.3421 185.175 41.7426 185.175 43.2836H186.575C186.575 41.5153 186.162 39.8785 185.331 38.3868L184.108 39.0684ZM185.175 43.2836C185.175 44.8039 184.828 46.2092 184.135 47.5107L185.371 48.1685C186.174 46.6593 186.575 45.0273 186.575 43.2836H185.175ZM184.137 47.5065C183.447 48.7825 182.489 49.8038 181.253 50.5786L181.997 51.7646C183.436 50.8621 184.563 49.662 185.369 48.1727L184.137 47.5065ZM181.249 50.5815C180.058 51.341 178.673 51.7296 177.069 51.7296V53.1296C178.911 53.1296 180.563 52.6796 182.002 51.7617L181.249 50.5815ZM169.943 43.3176C169.943 44.7366 170.25 46.05 170.872 47.245L172.114 46.5982C171.603 45.6172 171.343 44.528 171.343 43.3176H169.943ZM170.881 47.2604C171.523 48.4211 172.382 49.3581 173.457 50.0582L174.221 48.885C173.347 48.3158 172.642 47.5527 172.106 46.5828L170.881 47.2604ZM173.467 50.0644C174.556 50.7482 175.762 51.0896 177.069 51.0896V49.6896C176.019 49.6896 175.072 49.419 174.211 48.8788L173.467 50.0644ZM177.069 51.0896C178.382 51.0896 179.591 50.7339 180.681 50.0242L179.917 48.851C179.058 49.4106 178.114 49.6896 177.069 49.6896V51.0896ZM180.681 50.0242C181.76 49.3218 182.619 48.3708 183.261 47.187L182.03 46.5202C181.492 47.5124 180.788 48.284 179.917 48.851L180.681 50.0242ZM183.261 47.187C183.909 45.9902 184.229 44.6732 184.229 43.2496H182.829C182.829 44.4553 182.56 45.541 182.03 46.5202L183.261 47.187ZM184.229 43.2496C184.229 41.826 183.909 40.509 183.261 39.3122L182.03 39.979C182.56 40.9582 182.829 42.0439 182.829 43.2496H184.229ZM183.261 39.3122C182.619 38.1284 181.76 37.1774 180.681 36.475L179.917 37.6482C180.788 38.2152 181.492 38.9868 182.03 39.979L183.261 39.3122ZM180.681 36.475C179.591 35.7653 178.382 35.4096 177.069 35.4096V36.8096C178.114 36.8096 179.058 37.0886 179.917 37.6482L180.681 36.475ZM177.069 35.4096C175.771 35.4096 174.57 35.7813 173.482 36.5152L174.265 37.6759C175.126 37.0952 176.055 36.8096 177.069 36.8096V35.4096ZM173.491 36.509C172.413 37.2114 171.553 38.1624 170.912 39.3462L172.143 40.013C172.68 39.0208 173.384 38.2492 174.255 37.6822L173.491 36.509ZM170.912 39.3462C170.262 40.5447 169.943 41.8735 169.943 43.3176H171.343C171.343 42.087 171.613 40.9905 172.143 40.013L170.912 39.3462ZM206.674 52.0896V52.7896H207.374V52.0896H206.674ZM204.362 52.0896H203.662V52.7896H204.362V52.0896ZM203.41 37.6396L202.817 38.0118L202.822 38.0199L202.827 38.0279L203.41 37.6396ZM197.868 36.8576L198.174 37.4869L198.181 37.4837L198.187 37.4805L197.868 36.8576ZM195.522 38.6596L194.997 38.1965L194.996 38.1975L195.522 38.6596ZM194.094 41.2436L193.424 41.041L193.394 41.1401V41.2436H194.094ZM194.094 52.0896V52.7896H194.794V52.0896H194.094ZM191.782 52.0896H191.082V52.7896H191.782V52.0896ZM191.782 34.3756V33.6756H191.082V34.3756H191.782ZM193.89 34.3756H194.59V33.6756H193.89V34.3756ZM193.89 38.3876H193.19L194.505 38.722L193.89 38.3876ZM196.984 35.2596L196.631 34.655L196.984 35.2596ZM204.532 35.0216L204.087 35.562L204.097 35.5698L204.532 35.0216ZM206.164 37.6736L205.489 37.8589L205.491 37.8668L205.493 37.8747L206.164 37.6736ZM206.674 51.3896H204.362V52.7896H206.674V51.3896ZM205.062 52.0896V42.1956H203.662V52.0896H205.062ZM205.062 42.1956C205.062 40.0702 204.744 38.3792 203.992 37.2513L202.827 38.0279C203.345 38.804 203.662 40.1503 203.662 42.1956H205.062ZM204.003 37.2674C203.245 36.0607 202.052 35.4776 200.554 35.4776V36.8776C201.64 36.8776 202.351 37.2691 202.817 38.0118L204.003 37.2674ZM200.554 35.4776C199.526 35.4776 198.522 35.7356 197.548 36.2347L198.187 37.4805C198.982 37.0729 199.769 36.8776 200.554 36.8776V35.4776ZM197.561 36.2283C196.591 36.7012 195.735 37.3597 194.997 38.1965L196.047 39.1227C196.668 38.4181 197.377 37.8753 198.174 37.4869L197.561 36.2283ZM194.996 38.1975C194.271 39.0224 193.747 39.9728 193.424 41.041L194.764 41.4462C195.03 40.5651 195.458 39.7928 196.048 39.1217L194.996 38.1975ZM193.394 41.2436V52.0896H194.794V41.2436H193.394ZM194.094 51.3896H191.782V52.7896H194.094V51.3896ZM192.482 52.0896V34.3756H191.082V52.0896H192.482ZM191.782 35.0756H193.89V33.6756H191.782V35.0756ZM193.19 34.3756V38.3876H194.59V34.3756H193.19ZM194.505 38.722C195.142 37.5503 196.079 36.5979 197.337 35.8642L196.631 34.655C195.169 35.508 194.043 36.6409 193.275 38.0532L194.505 38.722ZM197.337 35.8642C198.589 35.1339 199.94 34.7696 201.404 34.7696V33.3696C199.694 33.3696 198.099 33.7987 196.631 34.655L197.337 35.8642ZM201.404 34.7696C202.608 34.7696 203.476 35.0593 204.087 35.5619L204.977 34.4812C204.046 33.7146 202.829 33.3696 201.404 33.3696V34.7696ZM204.097 35.5698C204.727 36.0707 205.202 36.8143 205.489 37.8589L206.839 37.4883C206.491 36.2209 205.878 35.1965 204.967 34.4734L204.097 35.5698ZM205.493 37.8747C205.809 38.9257 205.974 40.2032 205.974 41.7196H207.374C207.374 40.108 207.199 38.6881 206.834 37.4725L205.493 37.8747ZM205.974 41.7196V52.0896H207.374V41.7196H205.974ZM213.168 44.1676L213.715 44.6049L213.721 44.5974L213.168 44.1676ZM215.786 42.2636L215.526 41.6136L215.522 41.6155L215.786 42.2636ZM222.382 41.8216L222.264 42.5116L222.273 42.513L222.281 42.5142L222.382 41.8216ZM224.864 42.3996L224.637 43.0616L225.564 43.3804V42.3996H224.864ZM217.078 36.5516L217.319 37.209L217.326 37.2064L217.333 37.2037L217.078 36.5516ZM214.188 38.0816L213.573 38.415L213.942 39.0967L214.582 38.66L214.188 38.0816ZM213.304 36.4496L212.908 35.8724L212.389 36.229L212.689 36.783L213.304 36.4496ZM216.704 34.6816L216.934 35.343L216.945 35.3387L216.704 34.6816ZM225.272 35.9396L225.763 35.4402L225.272 35.9396ZM228.026 50.2536H228.726V49.581L228.054 49.5542L228.026 50.2536ZM228.026 52.0896L228.121 52.7832L228.726 52.7006V52.0896H228.026ZM226.972 52.1576L227.049 51.4619L227.025 51.4591L227 51.4582L226.972 52.1576ZM225.68 51.6136L225.151 52.0721L225.68 51.6136ZM225.204 50.5256L224.504 50.544L224.505 50.5554L224.505 50.5667L225.204 50.5256ZM225.17 49.2336L225.87 49.2152L225.818 47.2599L224.618 48.8038L225.17 49.2336ZM222.076 51.6136L222.352 52.2571L222.361 52.2528L222.076 51.6136ZM215.106 51.7156L214.769 52.3291L214.781 52.3354L215.106 51.7156ZM212.964 49.7436L212.362 50.1014L212.368 50.111L212.374 50.1205L212.964 49.7436ZM224.082 48.3496L223.549 47.8957L223.538 47.9094L223.527 47.9237L224.082 48.3496ZM224.864 44.0656H225.564V43.5878L225.119 43.4137L224.864 44.0656ZM215.548 49.4716L215.039 49.9519L215.046 49.9593L215.548 49.4716ZM221.838 50.0156L221.555 49.3753L221.55 49.3778L221.838 50.0156ZM212.916 46.9896C212.916 46.0485 213.187 45.265 213.715 44.6049L212.622 43.7303C211.88 44.6569 211.516 45.7547 211.516 46.9896H212.916ZM213.721 44.5974C214.269 43.8927 215.035 43.3262 216.051 42.9117L215.522 41.6155C214.316 42.1076 213.337 42.8105 212.616 43.7378L213.721 44.5974ZM216.046 42.9135C217.082 42.4993 218.294 42.2836 219.696 42.2836V40.8836C218.152 40.8836 216.757 41.1212 215.526 41.6137L216.046 42.9135ZM219.696 42.2836C220.514 42.2836 221.37 42.359 222.264 42.5116L222.5 41.1316C221.535 40.9669 220.6 40.8836 219.696 40.8836V42.2836ZM222.281 42.5142C223.176 42.6453 223.96 42.8291 224.637 43.0616L225.092 41.7376C224.317 41.4715 223.447 41.2699 222.483 41.129L222.281 42.5142ZM225.564 42.3996V40.9036H224.164V42.3996H225.564ZM225.564 40.9036C225.564 39.2611 225.074 37.8792 224.033 36.8386L223.043 37.8286C223.771 38.556 224.164 39.5541 224.164 40.9036H225.564ZM224.033 36.8386C222.987 35.7922 221.567 35.3076 219.866 35.3076V36.7076C221.294 36.7076 222.322 37.107 223.043 37.8286L224.033 36.8386ZM219.866 35.3076C218.844 35.3076 217.828 35.5075 216.824 35.8995L217.333 37.2037C218.187 36.8703 219.03 36.7076 219.866 36.7076V35.3076ZM216.838 35.8942C215.844 36.2579 214.829 36.7975 213.794 37.5032L214.582 38.66C215.542 38.0057 216.454 37.5253 217.319 37.209L216.838 35.8942ZM214.804 37.7482L213.92 36.1162L212.689 36.783L213.573 38.415L214.804 37.7482ZM213.7 37.0268C214.814 36.2622 215.892 35.7043 216.934 35.3429L216.475 34.0203C215.295 34.4296 214.106 35.0503 212.908 35.8724L213.7 37.0268ZM216.945 35.3387C217.981 34.9584 219.032 34.7696 220.104 34.7696V33.3696C218.864 33.3696 217.649 33.5888 216.463 34.0245L216.945 35.3387ZM220.104 34.7696C222.14 34.7696 223.671 35.3484 224.782 36.439L225.763 35.4402C224.334 34.0374 222.42 33.3696 220.104 33.3696V34.7696ZM224.782 36.439C225.887 37.5244 226.476 39.0497 226.476 41.1076H227.876C227.876 38.7682 227.196 36.8482 225.763 35.4402L224.782 36.439ZM226.476 41.1076V49.3016H227.876V41.1076H226.476ZM226.476 49.3016C226.476 49.7051 226.569 50.1314 226.866 50.4648C227.172 50.8074 227.591 50.9367 227.998 50.953L228.054 49.5542C227.895 49.5478 227.888 49.5071 227.911 49.5324C227.925 49.5484 227.876 49.5101 227.876 49.3016H226.476ZM227.326 50.2536V52.0896H228.726V50.2536H227.326ZM227.932 51.396C227.431 51.4642 227.158 51.4739 227.049 51.4619L226.895 52.8533C227.194 52.8866 227.624 52.851 228.121 52.7832L227.932 51.396ZM227 51.4582C226.573 51.4411 226.346 51.313 226.209 51.1551L225.151 52.0721C225.604 52.5942 226.238 52.8288 226.944 52.857L227 51.4582ZM226.209 51.1551C225.998 50.9116 225.915 50.6912 225.903 50.4845L224.505 50.5667C224.539 51.1307 224.773 51.6355 225.151 52.0721L226.209 51.1551ZM225.904 50.5072L225.87 49.2152L224.47 49.252L224.504 50.544L225.904 50.5072ZM224.618 48.8038C223.9 49.7264 222.963 50.4509 221.791 50.9744L222.361 52.2528C223.728 51.6429 224.854 50.7808 225.723 49.6634L224.618 48.8038ZM221.8 50.9702C220.614 51.4788 219.415 51.7296 218.2 51.7296V53.1296C219.614 53.1296 221 52.8364 222.352 52.257L221.8 50.9702ZM218.2 51.7296C217.143 51.7296 216.225 51.5127 215.432 51.0958L214.781 52.3354C215.8 52.8705 216.946 53.1296 218.2 53.1296V51.7296ZM215.443 51.1022C214.632 50.656 214.008 50.0773 213.554 49.3667L212.374 50.1205C212.963 51.0419 213.767 51.7778 214.769 52.3289L215.443 51.1022ZM213.566 49.3858C213.133 48.6579 212.916 47.8639 212.916 46.9896H211.516C211.516 48.1099 211.798 49.152 212.362 50.1014L213.566 49.3858ZM224.615 48.8035C225.188 48.1305 225.564 47.4069 225.564 46.6496H224.164C224.164 46.935 224.019 47.3447 223.549 47.8957L224.615 48.8035ZM225.564 46.6496V44.0656H224.164V46.6496H225.564ZM225.119 43.4137C223.473 42.7695 221.754 42.4476 219.968 42.4476V43.8476C221.582 43.8476 223.127 44.1377 224.609 44.7175L225.119 43.4137ZM219.968 42.4476C218.226 42.4476 216.744 42.793 215.577 43.5452L216.335 44.722C217.208 44.1595 218.401 43.8476 219.968 43.8476V42.4476ZM215.577 43.5452C214.374 44.3205 213.726 45.4289 213.726 46.8196H215.126C215.126 45.9436 215.498 45.2614 216.335 44.722L215.577 43.5452ZM213.726 46.8196C213.726 47.9945 214.184 49.0453 215.039 49.9518L216.057 48.9914C215.416 48.3112 215.126 47.594 215.126 46.8196H213.726ZM215.046 49.9593C215.978 50.9184 217.241 51.3616 218.744 51.3616V49.9616C217.527 49.9616 216.66 49.6115 216.05 48.9838L215.046 49.9593ZM218.744 51.3616C219.948 51.3616 221.078 51.1276 222.127 50.6534L221.55 49.3778C220.694 49.7649 219.762 49.9616 218.744 49.9616V51.3616ZM222.121 50.6559C223.177 50.1891 224.029 49.5688 224.638 48.7755L223.527 47.9237C223.092 48.4904 222.448 48.9807 221.555 49.3753L222.121 50.6559ZM242.579 51.2396L242.848 51.8858L243.445 51.6369L243.244 51.0219L242.579 51.2396ZM241.083 51.8516L241.346 52.5001L241.083 51.8516ZM235.949 51.4436L236.371 50.8856L235.949 51.4436ZM234.827 36.2116H235.527V35.5116H234.827V36.2116ZM232.379 36.2116H231.679V36.9116H232.379V36.2116ZM232.379 34.3756V33.6756H231.679V34.3756H232.379ZM234.827 34.3756V35.0756H235.527V34.3756H234.827ZM234.827 28.3916V27.6916H234.127V28.3916H234.827ZM237.139 28.3916H237.839V27.6916H237.139V28.3916ZM237.139 34.3756H236.439V35.0756H237.139V34.3756ZM241.219 34.3756H241.919V33.6756H241.219V34.3756ZM241.219 36.2116V36.9116H241.919V36.2116H241.219ZM237.139 36.2116V35.5116H236.439V36.2116H237.139ZM237.139 48.2476H236.439V48.2717L236.44 48.2958L237.139 48.2476ZM237.819 49.7096L237.389 50.2621L237.406 50.2753L237.423 50.2873L237.819 49.7096ZM240.981 49.8456L241.246 50.4935L241.253 50.4906L241.26 50.4875L240.981 49.8456ZM241.967 49.3696L242.632 49.1519L242.345 48.2759L241.578 48.7872L241.967 49.3696ZM242.309 50.5934C242.041 50.7054 241.545 50.9083 240.819 51.2031L241.346 52.5001C242.071 52.2055 242.573 52.0004 242.848 51.8858L242.309 50.5934ZM240.819 51.2031C240.193 51.4573 239.447 51.5936 238.567 51.5936V52.9936C239.59 52.9936 240.521 52.8353 241.346 52.5001L240.819 51.2031ZM238.567 51.5936C237.712 51.5936 236.99 51.3542 236.371 50.8856L235.526 52.0016C236.404 52.6664 237.427 52.9936 238.567 52.9936V51.5936ZM236.371 50.8856C235.835 50.4793 235.527 49.8588 235.527 48.8936H234.127C234.127 50.1951 234.566 51.2746 235.526 52.0016L236.371 50.8856ZM235.527 48.8936V36.2116H234.127V48.8936H235.527ZM234.827 35.5116H232.379V36.9116H234.827V35.5116ZM233.079 36.2116V34.3756H231.679V36.2116H233.079ZM232.379 35.0756H234.827V33.6756H232.379V35.0756ZM235.527 34.3756V28.3916H234.127V34.3756H235.527ZM234.827 29.0916H237.139V27.6916H234.827V29.0916ZM236.439 28.3916V34.3756H237.839V28.3916H236.439ZM237.139 35.0756H241.219V33.6756H237.139V35.0756ZM240.519 34.3756V36.2116H241.919V34.3756H240.519ZM241.219 35.5116H237.139V36.9116H241.219V35.5116ZM236.439 36.2116V48.2476H237.839V36.2116H236.439ZM236.44 48.2958C236.495 49.0935 236.783 49.7907 237.389 50.2621L238.248 49.1571C238.039 48.9938 237.873 48.7164 237.837 48.1994L236.44 48.2958ZM237.423 50.2873C237.976 50.6652 238.602 50.8516 239.281 50.8516V49.4516C238.871 49.4516 238.523 49.3434 238.214 49.1319L237.423 50.2873ZM239.281 50.8516C239.99 50.8516 240.649 50.7374 241.246 50.4935L240.716 49.1977C240.315 49.3618 239.84 49.4516 239.281 49.4516V50.8516ZM241.26 50.4875C241.765 50.2678 242.157 50.0843 242.355 49.952L241.578 48.7872C241.505 48.8363 241.239 48.97 240.702 49.2037L241.26 50.4875ZM241.301 49.5873L241.913 51.4573L243.244 51.0219L242.632 49.1519L241.301 49.5873ZM250.302 51.1716L249.931 51.7646L250.302 51.1716ZM247.14 47.8056L246.527 48.1422L247.14 47.8056ZM247.106 38.6256L246.495 38.2848L246.491 38.2925L247.106 38.6256ZM250.268 35.3276L250.633 35.9252L250.64 35.9206L250.268 35.3276ZM262.474 38.6596L261.854 38.9848L261.861 38.9969L262.474 38.6596ZM263.562 44.0656V44.7656H264.202L264.26 44.129L263.562 44.0656ZM248.398 44.0656V43.3656H247.633L247.701 44.1279L248.398 44.0656ZM249.486 47.4656L248.89 47.8317L248.894 47.8378L249.486 47.4656ZM251.832 49.8116L251.464 50.4069L251.474 50.4131L251.832 49.8116ZM258.224 49.7776L257.874 49.1715L258.224 49.7776ZM260.4 47.4656L260.584 46.79L260.008 46.634L259.763 47.1771L260.4 47.4656ZM262.406 48.0096L263.052 48.2812L263.362 47.5435L262.59 47.334L262.406 48.0096ZM260.706 50.3216L261.169 50.8474L261.17 50.8465L260.706 50.3216ZM258.088 51.8856L258.328 52.5436L258.341 52.5386L258.088 51.8856ZM248.33 42.3996L247.632 42.3497L247.579 43.0996H248.33V42.3996ZM261.42 42.3996V43.0996H262.172L262.119 42.3497L261.42 42.3996ZM260.366 39.0336L259.77 39.3997L259.774 39.4058L260.366 39.0336ZM258.02 36.7216L257.662 37.3232L257.673 37.3294L258.02 36.7216ZM251.696 36.7216L252.044 37.3295L252.055 37.3231L251.696 36.7216ZM249.35 39.0336L248.754 38.6675L248.751 38.6714L249.35 39.0336ZM254.858 51.7296C253.28 51.7296 251.892 51.3419 250.674 50.5786L249.931 51.7646C251.388 52.6786 253.037 53.1296 254.858 53.1296V51.7296ZM250.674 50.5786C249.44 49.8044 248.468 48.7713 247.754 47.469L246.527 48.1422C247.354 49.6506 248.49 50.8615 249.931 51.7646L250.674 50.5786ZM247.754 47.469C247.043 46.1717 246.684 44.7469 246.684 43.1816H245.284C245.284 44.9709 245.697 46.6288 246.527 48.1422L247.754 47.469ZM246.684 43.1816C246.684 41.6369 247.032 40.2336 247.722 38.9587L246.491 38.2925C245.685 39.7829 245.284 41.417 245.284 43.1816H246.684ZM247.718 38.9664C248.43 37.688 249.4 36.6776 250.633 35.9251L249.904 34.7301C248.462 35.6096 247.324 36.7979 246.495 38.2848L247.718 38.9664ZM250.64 35.9206C251.858 35.1573 253.246 34.7696 254.824 34.7696V33.3696C253.003 33.3696 251.354 33.8206 249.897 34.7346L250.64 35.9206ZM254.824 34.7696C256.453 34.7696 257.849 35.1592 259.038 35.9177L259.791 34.7375C258.351 33.8187 256.687 33.3696 254.824 33.3696V34.7696ZM259.038 35.9177C260.25 36.6907 261.186 37.71 261.855 38.9848L263.094 38.3344C262.312 36.8439 261.209 35.6418 259.791 34.7375L259.038 35.9177ZM261.861 38.9969C262.549 40.2482 262.896 41.6273 262.896 43.1476H264.296C264.296 41.4039 263.896 39.791 263.088 38.3223L261.861 38.9969ZM262.896 43.1476C262.896 43.4976 262.885 43.781 262.865 44.0022L264.26 44.129C264.285 43.8515 264.296 43.5229 264.296 43.1476H262.896ZM263.562 43.3656H248.398V44.7656H263.562V43.3656ZM247.701 44.1279C247.823 45.4951 248.216 46.7342 248.89 47.8317L250.083 47.0995C249.533 46.2023 249.2 45.1748 249.096 44.0033L247.701 44.1279ZM248.894 47.8378C249.561 48.9004 250.419 49.7596 251.464 50.4068L252.201 49.2164C251.342 48.6849 250.636 47.9802 250.079 47.0934L248.894 47.8378ZM251.474 50.4131C252.537 51.0458 253.704 51.3616 254.96 51.3616V49.9616C253.95 49.9616 253.032 49.7108 252.191 49.2101L251.474 50.4131ZM254.96 51.3616C256.242 51.3616 257.45 51.0333 258.575 50.3837L257.874 49.1715C256.959 49.7005 255.991 49.9616 254.96 49.9616V51.3616ZM258.575 50.3837C259.705 49.7309 260.54 48.8561 261.038 47.7541L259.763 47.1771C259.4 47.9791 258.784 48.6456 257.874 49.1715L258.575 50.3837ZM260.217 48.1412L262.223 48.6852L262.59 47.334L260.584 46.79L260.217 48.1412ZM261.761 47.738C261.443 48.4929 260.943 49.1793 260.243 49.7967L261.17 50.8465C262.011 50.1039 262.644 49.2489 263.052 48.2812L261.761 47.738ZM260.244 49.7958C259.563 50.3948 258.762 50.8748 257.836 51.2326L258.341 52.5386C259.409 52.1257 260.354 51.563 261.169 50.8474L260.244 49.7958ZM257.849 51.2277C256.935 51.5601 255.94 51.7296 254.858 51.7296V53.1296C256.089 53.1296 257.247 52.9364 258.328 52.5435L257.849 51.2277ZM248.33 43.0996H261.42V41.6996H248.33V43.0996ZM262.119 42.3497C262.021 40.9783 261.639 39.7432 260.959 38.6614L259.774 39.4058C260.318 40.2734 260.639 41.2823 260.722 42.4495L262.119 42.3497ZM260.963 38.6675C260.294 37.5769 259.429 36.7201 258.368 36.1138L257.673 37.3294C258.516 37.8111 259.215 38.4956 259.77 39.3997L260.963 38.6675ZM258.379 36.1201C257.313 35.4861 256.135 35.1716 254.858 35.1716V36.5716C255.894 36.5716 256.824 36.8238 257.662 37.3231L258.379 36.1201ZM254.858 35.1716C253.582 35.1716 252.404 35.4861 251.338 36.1201L252.055 37.3231C252.893 36.8238 253.823 36.5716 254.858 36.5716V35.1716ZM251.349 36.1138C250.288 36.7201 249.423 37.5769 248.754 38.6675L249.947 39.3997C250.502 38.4956 251.201 37.8111 252.044 37.3294L251.349 36.1138ZM248.751 38.6714C248.098 39.7515 247.73 40.983 247.632 42.3497L249.029 42.4495C249.112 41.2775 249.424 40.265 249.95 39.3958L248.751 38.6714ZM160.89 89.0976L161.475 89.4826L161.479 89.4761L160.89 89.0976ZM158.408 91.3076L158.727 91.9309L158.732 91.9282L158.408 91.3076ZM143.652 92.0896H142.952V92.7896H143.652V92.0896ZM143.652 67.9496V67.2496H142.952V67.9496H143.652ZM158.204 68.8676L157.784 69.4277L157.795 69.4351L158.204 68.8676ZM160.108 71.1796L159.476 71.4806L159.479 71.4865L160.108 71.1796ZM159.87 77.4356L159.27 77.0755L159.87 77.4356ZM157.32 79.7136L157.029 79.0773L155.341 79.8507L157.119 80.3841L157.32 79.7136ZM160.584 81.9916L161.149 81.5771L160.584 81.9916ZM146.032 70.0236V69.3236H145.332V70.0236H146.032ZM146.032 78.9316H145.332V79.6316H146.032V78.9316ZM156.436 78.3196L156.825 78.9021L156.83 78.8988L156.436 78.3196ZM157.898 76.6876L157.281 76.3582L157.277 76.366L157.898 76.6876ZM157.932 72.2336L157.306 72.5466L157.932 72.2336ZM156.538 70.6356L156.14 71.2111L156.148 71.2164L156.155 71.2215L156.538 70.6356ZM158.884 83.2156L158.262 83.5366V83.5367L158.884 83.2156ZM157.388 81.5156L156.986 82.0881L156.995 82.0948L157.388 81.5156ZM146.032 80.8696V80.1696H145.332V80.8696H146.032ZM146.032 90.0156H145.332V90.7156H146.032V90.0156ZM157.252 89.3696L157.636 89.9551L157.252 89.3696ZM158.816 87.7036L158.211 87.3521L158.207 87.3585L158.816 87.7036ZM161.108 85.8676C161.108 86.9434 160.837 87.887 160.302 88.7191L161.479 89.4761C162.168 88.4042 162.508 87.1945 162.508 85.8676H161.108ZM160.306 88.7126C159.763 89.5368 159.028 90.1948 158.085 90.687L158.732 91.9282C159.874 91.3324 160.794 90.5171 161.475 89.4826L160.306 88.7126ZM158.09 90.6843C157.175 91.1518 156.163 91.3896 155.042 91.3896V92.7896C156.369 92.7896 157.602 92.5061 158.727 91.9309L158.09 90.6843ZM155.042 91.3896H143.652V92.7896H155.042V91.3896ZM144.352 92.0896V67.9496H142.952V92.0896H144.352ZM143.652 68.6496H155.28V67.2496H143.652V68.6496ZM155.28 68.6496C156.28 68.6496 157.103 68.9166 157.784 69.4276L158.624 68.3076C157.674 67.5946 156.548 67.2496 155.28 67.2496V68.6496ZM157.795 69.4351C158.511 69.9523 159.071 70.6294 159.476 71.4806L160.74 70.8786C160.239 69.8258 159.53 68.9616 158.614 68.3001L157.795 69.4351ZM159.479 71.4865C159.887 72.3216 160.088 73.1915 160.088 74.1036H161.488C161.488 72.9757 161.237 71.8963 160.738 70.8727L159.479 71.4865ZM160.088 74.1036C160.088 75.1794 159.816 76.1654 159.27 77.0755L160.471 77.7957C161.149 76.6658 161.488 75.4305 161.488 74.1036H160.088ZM159.27 77.0755C158.731 77.9736 157.989 78.637 157.029 79.0773L157.612 80.3499C158.828 79.7928 159.786 78.9376 160.471 77.7957L159.27 77.0755ZM157.119 80.3841C158.338 80.7498 159.297 81.4218 160.02 82.4061L161.149 81.5771C160.24 80.3401 159.022 79.4934 157.522 79.0431L157.119 80.3841ZM160.02 82.4061C160.742 83.3881 161.108 84.5324 161.108 85.8676H162.508C162.508 84.2561 162.059 82.8165 161.149 81.5771L160.02 82.4061ZM145.332 70.0236V78.9316H146.732V70.0236H145.332ZM146.032 79.6316H154.328V78.2316H146.032V79.6316ZM154.328 79.6316C155.249 79.6316 156.089 79.3928 156.825 78.902L156.048 77.7372C155.56 78.0624 154.995 78.2316 154.328 78.2316V79.6316ZM156.83 78.8988C157.557 78.4052 158.125 77.774 158.52 77.0092L157.277 76.366C156.992 76.9159 156.585 77.3727 156.043 77.7404L156.83 78.8988ZM158.516 77.017C158.934 76.2326 159.142 75.3823 159.142 74.4776H157.742C157.742 75.1595 157.588 75.7826 157.281 76.3582L158.516 77.017ZM159.142 74.4776C159.142 73.5611 158.951 72.7048 158.559 71.9205L157.306 72.5466C157.594 73.1224 157.742 73.7621 157.742 74.4776H159.142ZM158.559 71.9205C158.168 71.1388 157.623 70.5083 156.922 70.0497L156.155 71.2215C156.633 71.5336 157.017 71.9684 157.306 72.5466L158.559 71.9205ZM156.937 70.0601C156.225 69.5674 155.416 69.3236 154.532 69.3236V70.7236C155.145 70.7236 155.673 70.8878 156.14 71.2111L156.937 70.0601ZM154.532 69.3236H146.032V70.7236H154.532V69.3236ZM160.128 85.4596C160.128 84.5549 159.921 83.6968 159.506 82.8946L158.262 83.5367C158.574 84.1397 158.728 84.7776 158.728 85.4596H160.128ZM159.507 82.8946C159.092 82.0914 158.516 81.4347 157.782 80.9364L156.995 82.0948C157.53 82.4578 157.952 82.9345 158.262 83.5366L159.507 82.8946ZM157.791 80.9431C157.054 80.4243 156.209 80.1696 155.28 80.1696V81.5696C155.939 81.5696 156.499 81.7455 156.986 82.0881L157.791 80.9431ZM155.28 80.1696H146.032V81.5696H155.28V80.1696ZM145.332 80.8696V90.0156H146.732V80.8696H145.332ZM146.032 90.7156H155.042V89.3156H146.032V90.7156ZM155.042 90.7156C155.989 90.7156 156.86 90.4634 157.636 89.9551L156.869 88.7841C156.33 89.1371 155.728 89.3156 155.042 89.3156V90.7156ZM157.636 89.9551C158.386 89.4637 158.985 88.8262 159.425 88.0487L158.207 87.3585C157.877 87.941 157.434 88.4141 156.869 88.7841L157.636 89.9551ZM159.422 88.0551C159.89 87.2484 160.128 86.3795 160.128 85.4596H158.728C158.728 86.1264 158.559 86.7535 158.211 87.3521L159.422 88.0551ZM170.853 91.1716L170.477 91.7618L170.481 91.7646L170.853 91.1716ZM167.759 87.8396L167.141 88.1685L167.143 88.1727L167.759 87.8396ZM167.759 78.7276L167.145 78.391L167.143 78.3945L167.759 78.7276ZM170.887 75.3616L171.263 75.9517L171.266 75.9501L170.887 75.3616ZM179.931 75.3616L179.547 75.9472L179.559 75.9546L179.931 75.3616ZM183.059 78.7276L182.441 79.0566L182.448 79.0684L183.059 78.7276ZM183.093 87.8396L183.709 88.1727L183.711 88.1685L183.093 87.8396ZM179.965 91.1716L179.593 90.5786L179.589 90.5815L179.965 91.1716ZM169.833 86.9216L169.212 87.245L169.216 87.2527L169.22 87.2604L169.833 86.9216ZM172.179 89.4716L171.797 90.0583L171.807 90.0644L172.179 89.4716ZM178.639 89.4376L179.021 90.0242L178.639 89.4376ZM180.985 86.8536L180.369 86.5202H180.369L180.985 86.8536ZM172.213 77.0956L172.595 77.6823L172.604 77.6759L172.213 77.0956ZM169.867 79.6796L169.251 79.3462L169.867 79.6796ZM175.409 91.7296C173.83 91.7296 172.442 91.3419 171.225 90.5786L170.481 91.7646C171.938 92.6786 173.588 93.1296 175.409 93.1296V91.7296ZM171.229 90.5815C170.016 89.8073 169.067 88.7855 168.375 87.5065L167.143 88.1727C167.947 89.6591 169.061 90.8586 170.477 91.7617L171.229 90.5815ZM168.377 87.5107C167.684 86.2092 167.337 84.8039 167.337 83.2836H165.937C165.937 85.0273 166.338 86.6593 167.141 88.1685L168.377 87.5107ZM167.337 83.2836C167.337 81.7389 167.685 80.3356 168.375 79.0607L167.143 78.3945C166.337 79.8849 165.937 81.5189 165.937 83.2836H167.337ZM168.373 79.0642C169.089 77.759 170.051 76.7254 171.263 75.9517L170.511 74.7715C169.094 75.6752 167.971 76.8856 167.145 78.391L168.373 79.0642ZM171.266 75.9501C172.484 75.1656 173.858 74.7696 175.409 74.7696V73.3696C173.605 73.3696 171.965 73.8349 170.508 74.7731L171.266 75.9501ZM175.409 74.7696C176.984 74.7696 178.356 75.1666 179.547 75.9471L180.315 74.7761C178.877 73.8339 177.234 73.3696 175.409 73.3696V74.7696ZM179.559 75.9546C180.792 76.7277 181.75 77.7582 182.441 79.0565L183.677 78.3987C182.872 76.8863 181.745 75.6728 180.303 74.7686L179.559 75.9546ZM182.448 79.0684C183.157 80.3421 183.515 81.7426 183.515 83.2836H184.915C184.915 81.5153 184.502 79.8785 183.67 78.3868L182.448 79.0684ZM183.515 83.2836C183.515 84.8039 183.168 86.2092 182.475 87.5107L183.711 88.1685C184.514 86.6593 184.915 85.0273 184.915 83.2836H183.515ZM182.477 87.5065C181.787 88.7825 180.829 89.8038 179.593 90.5786L180.337 91.7646C181.776 90.8621 182.903 89.662 183.709 88.1727L182.477 87.5065ZM179.589 90.5815C178.398 91.341 177.013 91.7296 175.409 91.7296V93.1296C177.251 93.1296 178.903 92.6796 180.341 91.7617L179.589 90.5815ZM168.283 83.3176C168.283 84.7366 168.59 86.05 169.212 87.245L170.454 86.5982C169.943 85.6172 169.683 84.528 169.683 83.3176H168.283ZM169.22 87.2604C169.863 88.4211 170.722 89.3581 171.797 90.0582L172.561 88.885C171.687 88.3158 170.982 87.5527 170.446 86.5828L169.22 87.2604ZM171.807 90.0644C172.896 90.7482 174.102 91.0896 175.409 91.0896V89.6896C174.359 89.6896 173.412 89.419 172.551 88.8788L171.807 90.0644ZM175.409 91.0896C176.721 91.0896 177.931 90.7339 179.021 90.0242L178.257 88.851C177.398 89.4106 176.454 89.6896 175.409 89.6896V91.0896ZM179.021 90.0242C180.1 89.3218 180.959 88.3708 181.601 87.187L180.369 86.5202C179.832 87.5124 179.128 88.284 178.257 88.851L179.021 90.0242ZM181.601 87.187C182.249 85.9902 182.569 84.6732 182.569 83.2496H181.169C181.169 84.4553 180.9 85.541 180.369 86.5202L181.601 87.187ZM182.569 83.2496C182.569 81.826 182.249 80.509 181.601 79.3122L180.369 79.979C180.9 80.9582 181.169 82.0439 181.169 83.2496H182.569ZM181.601 79.3122C180.959 78.1284 180.1 77.1774 179.021 76.475L178.257 77.6482C179.128 78.2152 179.832 78.9868 180.369 79.979L181.601 79.3122ZM179.021 76.475C177.931 75.7653 176.721 75.4096 175.409 75.4096V76.8096C176.454 76.8096 177.398 77.0886 178.257 77.6482L179.021 76.475ZM175.409 75.4096C174.111 75.4096 172.91 75.7813 171.822 76.5152L172.604 77.6759C173.466 77.0952 174.395 76.8096 175.409 76.8096V75.4096ZM171.831 76.509C170.752 77.2114 169.893 78.1624 169.251 79.3462L170.483 80.013C171.02 79.0208 171.724 78.2492 172.595 77.6822L171.831 76.509ZM169.251 79.3462C168.602 80.5447 168.283 81.8735 168.283 83.3176H169.683C169.683 82.087 169.953 80.9905 170.483 80.013L169.251 79.3462ZM193.114 91.1716L192.737 91.7618L192.742 91.7646L193.114 91.1716ZM190.02 87.8396L189.402 88.1685L189.404 88.1727L190.02 87.8396ZM190.02 78.7276L189.406 78.391L189.404 78.3945L190.02 78.7276ZM193.148 75.3616L193.524 75.9517L193.527 75.9501L193.148 75.3616ZM202.192 75.3616L201.808 75.9472L201.82 75.9546L202.192 75.3616ZM205.32 78.7276L204.702 79.0566L204.708 79.0684L205.32 78.7276ZM205.354 87.8396L205.969 88.1727L205.972 88.1685L205.354 87.8396ZM202.226 91.1716L201.854 90.5786L201.849 90.5815L202.226 91.1716ZM192.094 86.9216L191.473 87.245L191.477 87.2527L191.481 87.2604L192.094 86.9216ZM194.44 89.4716L194.058 90.0583L194.067 90.0644L194.44 89.4716ZM200.9 89.4376L201.282 90.0242L200.9 89.4376ZM203.246 86.8536L202.63 86.5202H202.63L203.246 86.8536ZM194.474 77.0956L194.856 77.6823L194.865 77.6759L194.474 77.0956ZM192.128 79.6796L191.512 79.3462L192.128 79.6796ZM197.67 91.7296C196.091 91.7296 194.703 91.3419 193.486 90.5786L192.742 91.7646C194.199 92.6786 195.849 93.1296 197.67 93.1296V91.7296ZM193.49 90.5815C192.277 89.8073 191.327 88.7855 190.635 87.5065L189.404 88.1727C190.208 89.6591 191.321 90.8586 192.737 91.7617L193.49 90.5815ZM190.638 87.5107C189.945 86.2092 189.598 84.8039 189.598 83.2836H188.198C188.198 85.0273 188.598 86.6593 189.402 88.1685L190.638 87.5107ZM189.598 83.2836C189.598 81.7389 189.946 80.3356 190.635 79.0607L189.404 78.3945C188.598 79.8849 188.198 81.5189 188.198 83.2836H189.598ZM190.633 79.0642C191.349 77.759 192.311 76.7254 193.524 75.9517L192.771 74.7715C191.355 75.6752 190.232 76.8856 189.406 78.391L190.633 79.0642ZM193.527 75.9501C194.745 75.1656 196.119 74.7696 197.67 74.7696V73.3696C195.866 73.3696 194.225 73.8349 192.769 74.7731L193.527 75.9501ZM197.67 74.7696C199.245 74.7696 200.617 75.1666 201.808 75.9471L202.575 74.7761C201.137 73.8339 199.494 73.3696 197.67 73.3696V74.7696ZM201.82 75.9546C203.053 76.7277 204.011 77.7582 204.702 79.0565L205.938 78.3987C205.133 76.8863 204.006 75.6728 202.564 74.7686L201.82 75.9546ZM204.708 79.0684C205.418 80.3421 205.776 81.7426 205.776 83.2836H207.176C207.176 81.5153 206.763 79.8785 205.931 78.3868L204.708 79.0684ZM205.776 83.2836C205.776 84.8039 205.428 86.2092 204.736 87.5107L205.972 88.1685C206.775 86.6593 207.176 85.0273 207.176 83.2836H205.776ZM204.738 87.5065C204.048 88.7825 203.089 89.8038 201.854 90.5786L202.598 91.7646C204.037 90.8621 205.164 89.662 205.969 88.1727L204.738 87.5065ZM201.849 90.5815C200.659 91.341 199.273 91.7296 197.67 91.7296V93.1296C199.511 93.1296 201.163 92.6796 202.602 91.7617L201.849 90.5815ZM190.544 83.3176C190.544 84.7366 190.85 86.05 191.473 87.245L192.715 86.5982C192.204 85.6172 191.944 84.528 191.944 83.3176H190.544ZM191.481 87.2604C192.123 88.4211 192.983 89.3581 194.058 90.0582L194.822 88.885C193.947 88.3158 193.243 87.5527 192.706 86.5828L191.481 87.2604ZM194.067 90.0644C195.156 90.7482 196.363 91.0896 197.67 91.0896V89.6896C196.619 89.6896 195.672 89.419 194.812 88.8788L194.067 90.0644ZM197.67 91.0896C198.982 91.0896 200.192 90.7339 201.282 90.0242L200.518 88.851C199.658 89.4106 198.715 89.6896 197.67 89.6896V91.0896ZM201.282 90.0242C202.36 89.3218 203.22 88.3708 203.861 87.187L202.63 86.5202C202.093 87.5124 201.388 88.284 200.518 88.851L201.282 90.0242ZM203.861 87.187C204.509 85.9902 204.83 84.6732 204.83 83.2496H203.43C203.43 84.4553 203.161 85.541 202.63 86.5202L203.861 87.187ZM204.83 83.2496C204.83 81.826 204.509 80.509 203.861 79.3122L202.63 79.979C203.161 80.9582 203.43 82.0439 203.43 83.2496H204.83ZM203.861 79.3122C203.22 78.1284 202.36 77.1774 201.282 76.475L200.518 77.6482C201.388 78.2152 202.093 78.9868 202.63 79.979L203.861 79.3122ZM201.282 76.475C200.192 75.7653 198.982 75.4096 197.67 75.4096V76.8096C198.715 76.8096 199.658 77.0886 200.518 77.6482L201.282 76.475ZM197.67 75.4096C196.372 75.4096 195.171 75.7813 194.082 76.5152L194.865 77.6759C195.726 77.0952 196.656 76.8096 197.67 76.8096V75.4096ZM194.092 76.509C193.013 77.2114 192.153 78.1624 191.512 79.3462L192.743 80.013C193.281 79.0208 193.985 78.2492 194.856 77.6822L194.092 76.509ZM191.512 79.3462C190.863 80.5447 190.544 81.8735 190.544 83.3176H191.944C191.944 82.087 192.214 80.9905 192.743 80.013L191.512 79.3462ZM225.03 92.0896L224.463 92.4997L224.673 92.7896H225.03V92.0896ZM218.468 83.0116L219.036 82.6015L218.57 81.9572L217.99 82.5008L218.468 83.0116ZM214.694 86.5476L214.216 86.0368L213.994 86.2442V86.5476H214.694ZM214.694 92.0896V92.7896H215.394V92.0896H214.694ZM212.382 92.0896H211.682V92.7896H212.382V92.0896ZM212.382 67.2696V66.5696H211.682V67.2696H212.382ZM214.694 67.2696H215.394V66.5696H214.694V67.2696ZM214.694 84.0656H213.994V85.7112L215.18 84.5699L214.694 84.0656ZM224.724 74.4096V73.7096H224.442L224.239 73.9053L224.724 74.4096ZM227.274 74.4096L227.769 74.9046L228.964 73.7096H227.274V74.4096ZM220.032 81.6516L219.537 81.1566L219.117 81.5775L219.464 82.0606L220.032 81.6516ZM227.546 92.0896V92.7896H228.913L228.115 91.6806L227.546 92.0896ZM225.598 91.6795L219.036 82.6015L217.901 83.4217L224.463 92.4997L225.598 91.6795ZM217.99 82.5008L214.216 86.0368L215.173 87.0584L218.947 83.5224L217.99 82.5008ZM213.994 86.5476V92.0896H215.394V86.5476H213.994ZM214.694 91.3896H212.382V92.7896H214.694V91.3896ZM213.082 92.0896V67.2696H211.682V92.0896H213.082ZM212.382 67.9696H214.694V66.5696H212.382V67.9696ZM213.994 67.2696V84.0656H215.394V67.2696H213.994ZM215.18 84.5699L225.21 74.9139L224.239 73.9053L214.209 83.5613L215.18 84.5699ZM224.724 75.1096H227.274V73.7096H224.724V75.1096ZM226.779 73.9146L219.537 81.1566L220.527 82.1466L227.769 74.9046L226.779 73.9146ZM219.464 82.0606L226.978 92.4986L228.115 91.6806L220.601 81.2426L219.464 82.0606ZM227.546 91.3896H225.03V92.7896H227.546V91.3896ZM234.22 91.7156L233.956 92.3639L233.963 92.3668L233.97 92.3696L234.22 91.7156ZM230.99 89.5396L230.385 89.1869L230.117 89.6472L230.489 90.0286L230.99 89.5396ZM231.942 87.9076L232.419 87.3955L231.778 86.7985L231.337 87.5549L231.942 87.9076ZM234.934 89.9476L234.656 90.5902L234.665 90.594L234.674 90.5975L234.934 89.9476ZM241.496 89.7436L241.87 90.3355L241.873 90.3329L241.496 89.7436ZM242.176 85.7316L241.695 86.2405L241.71 86.2542L241.725 86.267L242.176 85.7316ZM240.374 84.8136L240.176 85.4852L240.181 85.4867L240.374 84.8136ZM237.586 84.0316L237.398 84.7061L237.403 84.7073L237.586 84.0316ZM234.492 82.9776L234.193 83.6106L234.203 83.6155L234.214 83.6201L234.492 82.9776ZM232.622 81.5496L232.046 81.948L232.055 81.9608L232.064 81.9732L232.622 81.5496ZM232.86 76.4156L232.304 75.9903L232.296 76.0009L232.86 76.4156ZM235.24 74.6816L235.492 75.3346L235.5 75.3315L235.24 74.6816ZM242.244 74.7156L242.511 74.0686L242.244 74.7156ZM244.794 76.5176L245.362 76.9256L245.682 76.4803L245.326 76.0633L244.794 76.5176ZM243.672 78.0816L243.137 78.533L243.716 79.2201L244.24 78.4896L243.672 78.0816ZM241.394 76.4836L241.128 77.1312L241.138 77.1353L241.148 77.139L241.394 76.4836ZM236.43 76.2456L236.616 76.9204L236.627 76.9174L236.637 76.9141L236.43 76.2456ZM234.798 77.1976L234.29 76.7155L234.29 76.7162L234.798 77.1976ZM238.436 82.1276L238.243 82.8007L238.252 82.8032L238.436 82.1276ZM241.938 83.2156L241.698 83.8735L241.938 83.2156ZM244.25 84.6776L243.726 85.1427L243.735 85.1524L244.25 84.6776ZM243.196 91.0356L243.614 91.5968L243.196 91.0356ZM238.266 91.7296C236.893 91.7296 235.63 91.5047 234.469 91.0616L233.97 92.3696C235.303 92.8785 236.737 93.1296 238.266 93.1296V91.7296ZM234.484 91.0673C233.349 90.6052 232.353 89.9343 231.491 89.0506L230.489 90.0286C231.485 91.0489 232.642 91.8287 233.956 92.3639L234.484 91.0673ZM231.594 89.8923L232.546 88.2603L231.337 87.5549L230.385 89.1869L231.594 89.8923ZM231.464 88.4197C232.506 89.3903 233.569 90.1209 234.656 90.5902L235.211 89.305C234.303 88.913 233.372 88.2835 232.419 87.3955L231.464 88.4197ZM234.674 90.5975C235.779 91.0397 236.944 91.2596 238.164 91.2596V89.8596C237.117 89.8596 236.128 89.6715 235.194 89.2977L234.674 90.5975ZM238.164 91.2596C239.613 91.2596 240.865 90.9701 241.869 90.3354L241.122 89.1518C240.404 89.6051 239.435 89.8596 238.164 89.8596V91.2596ZM241.873 90.3329C242.957 89.6386 243.522 88.6128 243.522 87.3296H242.122C242.122 88.1317 241.803 88.7152 241.118 89.1543L241.873 90.3329ZM243.522 87.3296C243.522 86.4761 243.253 85.7239 242.627 85.1962L241.725 86.267C241.959 86.4646 242.122 86.7777 242.122 87.3296H243.522ZM242.656 85.2227C242.137 84.7326 241.42 84.3846 240.566 84.1405L240.181 85.4867C240.914 85.6959 241.398 85.9599 241.695 86.2405L242.656 85.2227ZM240.571 84.142C239.794 83.9135 238.86 83.6514 237.769 83.3559L237.403 84.7073C238.488 85.0011 239.412 85.2603 240.176 85.4852L240.571 84.142ZM237.773 83.3571C236.569 83.0227 235.57 82.6812 234.77 82.3351L234.214 83.6201C235.091 83.9993 236.154 84.3605 237.398 84.7061L237.773 83.3571ZM234.791 82.3446C234.05 81.9948 233.526 81.5824 233.179 81.126L232.064 81.9732C232.579 82.6502 233.302 83.1898 234.193 83.6106L234.791 82.3446ZM233.197 81.1512C232.891 80.7092 232.71 80.1005 232.71 79.2716H231.31C231.31 80.3014 231.536 81.2113 232.046 81.948L233.197 81.1512ZM232.71 79.2716C232.71 78.2591 232.961 77.4597 233.424 76.8303L232.296 76.0009C231.625 76.9128 231.31 78.0175 231.31 79.2716H232.71ZM233.416 76.8408C233.919 76.1829 234.602 75.6783 235.492 75.3346L234.987 74.0286C233.882 74.4556 232.979 75.107 232.304 75.9904L233.416 76.8408ZM235.5 75.3315C236.427 74.9608 237.47 74.7696 238.64 74.7696V73.3696C237.316 73.3696 236.093 73.5864 234.98 74.0317L235.5 75.3315ZM238.64 74.7696C239.926 74.7696 241.034 74.9733 241.976 75.3626L242.511 74.0686C241.368 73.5965 240.073 73.3696 238.64 73.3696V74.7696ZM241.976 75.3626C242.928 75.7558 243.684 76.2948 244.261 76.9719L245.326 76.0633C244.589 75.1991 243.644 74.5367 242.511 74.0686L241.976 75.3626ZM244.225 76.1096L243.103 77.6736L244.24 78.4896L245.362 76.9256L244.225 76.1096ZM244.207 77.6302C243.516 76.8113 242.656 76.2094 241.639 75.8282L241.148 77.139C241.945 77.4378 242.604 77.9013 243.137 78.533L244.207 77.6302ZM241.659 75.836C240.684 75.4357 239.629 75.2396 238.504 75.2396V76.6396C239.464 76.6396 240.336 76.8062 241.128 77.1312L241.659 75.836ZM238.504 75.2396C237.712 75.2396 236.95 75.3511 236.222 75.5771L236.637 76.9141C237.224 76.7321 237.845 76.6396 238.504 76.6396V75.2396ZM236.244 75.5708C235.475 75.7828 234.816 76.1616 234.29 76.7155L235.305 77.6797C235.64 77.3269 236.07 77.0711 236.616 76.9204L236.244 75.5708ZM234.29 76.7162C233.725 77.3122 233.486 78.1052 233.486 78.9996H234.886C234.886 78.3526 235.054 77.9444 235.306 77.679L234.29 76.7162ZM233.486 78.9996C233.486 80.1492 233.931 81.0839 234.919 81.5936L235.561 80.3496C235.143 80.1339 234.886 79.754 234.886 78.9996H233.486ZM234.919 81.5936C235.684 81.9886 236.802 82.389 238.243 82.8007L238.628 81.4545C237.213 81.0502 236.201 80.68 235.561 80.3496L234.919 81.5936ZM238.252 82.8032C239.576 83.1622 240.724 83.5191 241.698 83.8735L242.177 82.5577C241.157 82.1867 239.97 81.8183 238.619 81.452L238.252 82.8032ZM241.698 83.8735C242.618 84.2078 243.279 84.6394 243.727 85.1427L244.773 84.2125C244.132 83.4918 243.252 82.9487 242.177 82.5577L241.698 83.8735ZM243.735 85.1524C244.125 85.5747 244.366 86.2112 244.366 87.1596H245.766C245.766 85.9773 245.462 84.9591 244.764 84.2028L243.735 85.1524ZM244.366 87.1596C244.366 88.6097 243.834 89.6867 242.777 90.4744L243.614 91.5968C245.051 90.5258 245.766 89.0188 245.766 87.1596H244.366ZM242.777 90.4744C241.684 91.2891 240.202 91.7296 238.266 91.7296V93.1296C240.41 93.1296 242.214 92.6408 243.614 91.5968L242.777 90.4744Z" fill="url(#paint5_linear_242_7)"/>
<defs>
<linearGradient id="paint0_linear_242_7" x1="34.781" y1="13.926" x2="34.781" y2="99.6468" gradientUnits="userSpaceOnUse">
<stop stop-color="#403787"/>
<stop offset="1" stop-color="#D63657"/>
</linearGradient>
<linearGradient id="paint1_linear_242_7" x1="83.2197" y1="13.9248" x2="83.2197" y2="99.6455" gradientUnits="userSpaceOnUse">
<stop stop-color="#403787"/>
<stop offset="1" stop-color="#D63657"/>
</linearGradient>
<linearGradient id="paint2_linear_242_7" x1="93.0655" y1="28.5271" x2="93.0655" y2="104.076" gradientUnits="userSpaceOnUse">
<stop stop-color="#403787"/>
<stop offset="1" stop-color="#D63657"/>
</linearGradient>
<linearGradient id="paint3_linear_242_7" x1="24.9342" y1="28.5271" x2="24.9342" y2="104.075" gradientUnits="userSpaceOnUse">
<stop stop-color="#403787"/>
<stop offset="1" stop-color="#D63657"/>
</linearGradient>
<linearGradient id="paint4_linear_242_7" x1="209.6" y1="20.0896" x2="209.6" y2="108.483" gradientUnits="userSpaceOnUse">
<stop stop-color="#403787"/>
<stop offset="1" stop-color="#D63657"/>
</linearGradient>
<linearGradient id="paint5_linear_242_7" x1="209.6" y1="20.0896" x2="209.6" y2="108.483" gradientUnits="userSpaceOnUse">
<stop stop-color="#403787"/>
<stop offset="1" stop-color="#D63657"/>
</linearGradient>
</defs>
</svg>
